<svg version="1" xmlns="http://www.w3.org/2000/svg" width="1365.333" height="1365.333" viewBox="0 0 1024.000000 1024.000000"><path d="M506.5 40.7C457.7 116 377.4 168.4 288 183.4c-23.1 3.9-38.7 4.9-64.4 4.3-30.2-.7-51.4-3.7-79.1-11.1-4.9-1.3-9.1-2.3-9.3-2.1-.8.8-2.2 23.1-3.3 50.3-2 53.5 1.6 112.5 10.1 167.9 2.8 17.8 7.4 43.4 8.6 47.5.5 1.7 18.6 1.8 361.5 1.8 198.5 0 360.9-.2 360.9-.5s1.6-8.9 3.5-19.1c12.3-64.7 18-138.1 15.6-199.9-1.3-31.5-2.2-46-3-47.4-.5-.7-2.8-.4-7.1.9-8.6 2.6-33 7.6-46.6 9.6-15.2 2.1-55 3-71 1.5-100.8-9.2-189.2-60.7-243.9-142.1-4.3-6.3-8.1-11.6-8.4-11.7-.3-.2-2.8 3.2-5.6 7.4zm-8.4 173.2c2.5 1.2 6 3.6 7.8 5.3l3.1 3v81.5c0 44.8-.3 81.3-.7 81.1-13.9-7.1-20.8-8.6-32-6.9-4.2.6-20.9 2.9-37.2 5.1-27 3.7-30.3 3.9-39.1 3-9.9-1-18.1-3-20.5-5-1.3-1.1-1.5-12.7-1.5-83.1 0-64.9.3-81.9 1.3-81.9.6 0 3.5.7 6.2 1.6 2.8.8 10.4 1.8 17 2.1 10.4.4 16 0 42.5-3.7 16.8-2.2 31-4.3 31.5-4.5 2.8-1.3 17.3.4 21.6 2.4zm77.4 1.7c36.9 5.3 55.8 5.3 69.8-.1 1.6-.7 1.7 3.5 1.5 82.6l-.3 83.3-5.8 1.8c-3.3 1-10.6 2.2-16.3 2.8-11 1-14.4.7-66.4-6.6-21.2-3-27.8-2.5-37.6 2.7l-5.4 2.8.2-82.1.3-82.1 3.7-3c2-1.6 6.1-3.8 9-4.9 7-2.5 14.4-2 47.3 2.8zm90.7 19.5c1.7.9 1.8 5.8 1.8 82.9 0 47.7-.4 82.1-.9 82.4-.5.3-6.9 1.4-14.3 2.3-18.5 2.4-70.5 2.4-93.8 0-9.1-1-19.3-2-22.7-2.3l-6.3-.7v11.2l-7.6 1.7c-8.3 1.8-17.9 1.5-25.3-.7l-4.1-1.2v-11l-6.7.7c-3.8.4-13.5 1.3-21.8 2.2-24.4 2.4-64 2.9-83.9 1-9.2-.9-18.6-1.9-20.7-2.2l-3.9-.7V235.1l5.8-1.1c3.1-.6 6.7-1.4 8-1.7l2.2-.5v151l3 2.6c4.6 3.9 15 6.7 27 7.3 10.7.5 17.3-.2 60.5-6.3 25.6-3.7 34.8-2.6 43.1 5.2 4 3.7 8.3 3.8 12.1.1 1.6-1.4 5.1-3.6 7.8-4.9 7.4-3.4 19.3-3 51 1.7 38.7 5.8 58.1 5.3 71.5-1.5l3.7-1.9.6-12.8c.4-7 .7-41.7.7-77v-64.1l5.7 1.5c3.2.8 6.6 1.9 7.5 2.4zM349 268.5V284h-15v-31h15v15.5zm341 0V284h-16v-31h16v15.5zm-341 81V365h-15v-31h15v15.5zm341 0V365h-16v-31h16v15.5z"/><path d="M395.2 245.3c1.7 1.3 4.6 6.6 7.7 13.7 2.7 6.3 5.3 11.6 5.8 11.7.4.2 3-4.8 5.8-10.9 2.8-6.5 6.2-12.5 7.8-14.1l2.9-2.7H419c-3.8 0-5.9.4-5.5 1 .3.5 1.3 1 2.2 1 2.2 0 1.3 4.7-2.4 12.9l-2.9 6.4-2.1-5.4c-1.2-3-2.8-7.1-3.7-9.1-1.6-3.7-1.6-3.7 1.1-5.2s2.5-1.5-5.2-1.6h-8l2.7 2.3zM430.3 244.6c2.7 1.4 2.7 1.6 2.7 11 0 9.8-1 13.4-3.5 13.4-.8 0-1.5.3-1.5.7 0 .5 6.2.8 13.8.8h13.7l.3-3.4c.5-4.8-1.3-6-3.2-2.3-1.8 3.4-3.3 4.2-8.5 4.2-4.9 0-6.1-1.4-6.1-7.2 0-4.7.1-4.8 3-4.8 2.3 0 3.3.6 4 2.5 1.5 3.9 2 3 2-3.6v-6.2l-2.5 2.7c-1.3 1.4-3.3 2.6-4.5 2.6-1.7 0-2-.6-2-5v-5h4.7c3.7 0 5.3.6 7.5 2.7l2.8 2.7V243h-12.7c-11.9.1-12.6.2-10 1.6zM460 247c0 2.2.3 4 .6 4s1.7-1.4 3.1-3.1c1.9-2.2 3.3-2.9 5.2-2.7 2.6.3 2.6.4 2.9 9.4.3 10.4-.7 14.1-4 14.7-1.3.2 1.5.5 6.2.5 6.8 0 8-.2 5.8-1l-2.8-1V245h2.5c2.5 0 4.9 1.9 7.2 5.6 1 1.6 1.2 1.2 1.2-2.9l.1-4.7h-28v4zM396.6 286.7c-.8.8-.8 7.3 0 7.3.3 0 1.9-1.4 3.5-3.1 1.9-2 3.6-2.9 5.1-2.7 2.1.3 2.3.9 2.6 7.8.5 10.8-.5 16-2.8 16-1 0-2.2.4-2.5 1-.4.6 2.3 1 7.4 1 4.5 0 8.1-.4 8.1-.9s-1-1.1-2.2-1.3c-2.2-.3-2.3-.7-2.6-12.1-.3-11.4-.2-11.7 1.9-11.7 1.2 0 3.7 1.6 5.5 3.6l3.4 3.5v-9h-13.4c-7.3 0-13.6.3-14 .6zM429 287c0 .5.9 1 1.9 1 2.6 0 3.1 1.8 3.1 12s-.5 12-3.1 12c-1 0-1.9.4-1.9 1s5.3 1 14 1h14v-4c0-4.8-.9-5-3.9-1-2.1 2.9-2.6 3.1-7.9 2.8l-5.7-.3-.3-5.8-.3-5.8 2.8.3c1.7.2 3.2 1.1 3.8 2.5 1.6 3.8 2.5 2.6 2.5-3.2 0-3-.4-5.5-1-5.5-.5 0-1 .6-1 1.4 0 1.5-2.1 2.6-5.1 2.6-1.6 0-1.9-.7-1.9-5v-5h4.6c3.9 0 5.1.5 7.6 3.2l2.9 3.2-.3-4-.3-3.9-12.2-.3c-8-.2-12.3.1-12.3.8zM466.1 288.6c-4.3 5.5-2.4 9.3 7 13.8 5.7 2.8 6.4 3.4 6.4 6.1 0 6.1-8.7 5.8-12.3-.5-2.3-4.1-3.2-3.8-3.2 1.3 0 4.8-1.1 4.3 10.8 4.8 5.7.2 9.2-2.9 9.2-8.2 0-4.4-1.2-5.6-9.3-8.9-6.3-2.6-8-4.8-5.7-7.5.7-.8 2.8-1.5 4.7-1.5 2.8 0 3.7.6 5.4 3.5 1.2 1.9 2.3 3.5 2.5 3.5.2 0 .4-1.9.4-4.3v-4.3l-6.9-.2c-6.4-.3-7-.1-9 2.4zM410.3 331.2l2.7 1v22.6l-2.7 1c-2.1.8.7 1.1 11.5 1.1l14.2.1v-8.4l-3.4 3.7c-2.8 3.1-4 3.7-7.2 3.7-5.4 0-6.4-.9-7.1-6.8-.5-4.2-.3-5.3 1.1-5.8 2.1-.8 6.6 2.1 6.6 4.3 0 .9.3 1.3.7 1 .6-.7 1.4-11.7.7-11.7-.1 0-1.4 1.1-2.8 2.5-4.2 4.2-5.6 3.4-5.6-3.1v-5.7l4.7.6c3.4.4 5.3 1.2 7 3.1 2.9 3.4 3.3 3.3 3.3-.9V330l-13.2.1c-10.2 0-12.6.3-10.5 1.1zM442.5 331.2c3.8 2.2 4.4 4.1 4.5 13.5 0 9.1-.1 9.3-2.7 10.7-2.7 1.5-2.6 1.5 3.7 1.5 5.4 0 6.1-.2 4.5-1.1-3.1-1.8-3.5-2.8-3.4-10.8v-7.5l9.7 10.2c5.4 5.7 10.1 10.3 10.5 10.3.4 0 .7-5.3.7-11.8 0-12.2.2-13.2 3.5-15 1.6-.9.7-1.1-5-1.1-6.1 0-6.7.2-4.5 1.2 1.4.6 2.8 1.6 3.2 2.2 1 1.3 1 15.5.1 15.4-.5 0-4.6-4.3-9.2-9.5-8.3-9.3-8.4-9.4-13-9.4-4 .1-4.3.2-2.6 1.2zM580.5 243.4c-6.4 2.8-9 7.8-8.5 16.1.7 12.3 18 15.6 25.1 4.9 3-4.5 2.6-12.4-.8-16.5-2.8-3.2-7.8-5.9-11-5.9-1 .1-3.2.7-4.8 1.4zm9.5 3.1c2 2.1 2.5 3.9 2.8 9.3.4 8.8-2 13.2-7.1 13.2-5.5 0-7.9-4.1-7.9-13 .1-10.4 6.6-15.4 12.2-9.5zM533 244c0 .5.7 1 1.5 1 2.6 0 3.6 3.8 3.3 13.2-.3 8.6-.5 9.3-2.6 10.4-3.3 1.6-1.7 2 5.3 1.4 4.9-.4 5.5-.6 3.3-1.3-3.2-.8-4.1-4.1-3.6-12.8l.3-5.6 9.5 10.4c5.2 5.6 9.8 10.3 10.3 10.3.4 0 .7-5.1.7-11.3 0-11.7.5-13.3 4.5-15.5 1.6-.9.7-1.1-4.7-1.2-7.3 0-8.3.5-4.3 2 2.4.9 2.5 1.3 2.5 9.2l-.1 8.3-9-9.8c-8.5-9.1-9.3-9.7-13-9.7-2.1 0-3.9.4-3.9 1zM602 243.5c0 .3 1.1 1 2.3 1.4 1.8.7 3.7 3.9 7.5 12.6 2.9 6.5 5.2 12.2 5.2 12.7s.5.8 1.2.6c.6-.2 3.7-6 6.7-12.7 4.1-9 6.2-12.6 7.9-13.2 3.6-1.4 2.6-1.9-3.8-1.9-3.3 0-6 .4-6 1 0 .5.7 1 1.5 1 .9 0 1.8.6 2.1 1.4.7 1.9-5.6 17-6.7 15.9-.9-.9-6.9-15.1-6.9-16.4 0-.5.6-.9 1.4-.9.8 0 1.8-.5 2.1-1 .4-.6-2.2-1-6.9-1-4.2 0-7.6.2-7.6.5zM530 290.6v4.5l3.4-3.5c1.8-2 4.3-3.6 5.5-3.6 2 0 2.1.4 2.1 11.5V311l-2.7 1.2c-2.8 1.2-2.8 1.2 1.5 1.6 2.3.2 6.1.2 8.5 0 4.2-.4 4.2-.4 1.5-1.6L547 311v-11.5c0-10.6.2-11.5 1.9-11.5 2.4 0 7.1 3.7 7.1 5.6 0 .8.5 1.4 1 1.4.6 0 1-2 1-4.5v-4.4h-28v4.5zM570.9 292.7c-1.7 3.7-4.4 9.6-6 13-1.7 3.8-3.4 6.3-4.3 6.3-.9 0-1.6.4-1.6 1 0 .5 2.5 1 5.5 1s5.5-.5 5.5-1c0-.6-.7-1-1.5-1-2.2 0-2.8-2.2-1.6-5.3 1-2.4 1.5-2.7 6.1-2.7 4.5 0 5.2.3 6 2.6 1.5 3.8 1.2 5-1.2 6.2-1.9.9-.9 1.1 5.5 1.1 8 .1 9.3-.3 5.4-1.8-1.8-.7-3.5-3.8-7.4-13.2-2.7-6.8-5.5-12.5-6.2-12.7-.6-.2-2.5 2.7-4.2 6.5zm4.1 4c.8 2.1 1.6 4.1 1.8 4.5.2.5-1.5.8-3.8.8-3.6 0-4.1-.2-3.5-1.8.4-.9 1.2-2.9 1.7-4.5 1.3-3.6 2.1-3.4 3.8 1zM593 286.9c0 .5 1 1.1 2.3 1.3 2.1.3 2.2.7 2.5 11.6l.3 11.2-2.8 1.2-2.8 1.2 3.2.4c1.8.2 5 .2 7 0l3.8-.4-2.7-1.1c-2.4-1.1-2.7-1.8-3.3-8.5-.4-4-.5-9.1-.3-11.3.3-3.9.4-3.7 5.8 8.2 3 6.8 5.8 12.3 6.1 12.3.3 0 2.7-5 5.4-11.1s5.3-11.3 5.7-11.5c.9-.6 1.1 16 .2 19.3-.4 1.4-1.4 2.3-2.5 2.3s-1.9.4-1.9 1 3 1 7.3.9c6.8 0 7.1-.1 5-1.6-2.2-1.4-2.3-2.3-2.3-12.5 0-10.1.2-11 2-11.5 1.1-.3 2-.9 2-1.4 0-1.1-8-1.2-9.7-.1-.7.4-3.1 4.8-5.4 9.7l-4.2 9-2.5-5.5c-1.3-3-3.3-7.4-4.3-9.8l-1.8-4.2H599c-3.3 0-6 .4-6 .9zM529 334c0 2.2.3 4 .6 4s1.7-1.4 3.1-3c1.7-2.1 3.4-3 5.4-3h2.9v22.1l-3.2 1.4c-3.2 1.4-3 1.4 5.2 1.4 8.1 0 8.4-.1 5.8-1.5-2.8-1.5-2.8-1.5-2.8-12.4v-11h2.9c2.1 0 3.7.9 5.5 3.2l2.6 3.3V330h-28v4zM560.7 331.2c2.3 1.1 5 6.2 10.8 20 1.5 3.8 3.1 6.8 3.5 6.8.4 0 3.1-5.4 6-12 3.4-7.7 6.3-12.8 7.9-14l2.6-1.9H585c-5.4 0-6.1.2-4.2 1.1 1.3.7 2.2 2 2.2 3.4 0 2.3-5.7 16-6.4 15.3-.9-1-6.6-15.3-6.6-16.5 0-.8 1-1.9 2.3-2.4 1.6-.6 0-.9-5.8-.9-6.5 0-7.6.2-5.8 1.1zM594 330.5c0 .3 1.1 1 2.5 1.5 2.4.9 2.5 1.2 2.5 11.4 0 10.5 0 10.5-2.7 12s-2.6 1.5 4.2 1.5c4.7 0 6.3-.3 5-.9-4-1.6-4.6-3.3-4.3-13.6l.3-9.8 5.1 11.4c2.8 6.3 5.5 11.5 6 11.7.6.2 2.7-3.6 4.8-8.4 6.6-15.4 6.5-15.4 6.6-3 0 10.2-.1 10.8-2.2 11.7-1.7.6-.3.9 5.2.9 4.1-.1 6.8-.3 6-.6-3.2-1.1-4-3.7-4-12.7 0-9.6.3-10.6 3.5-12.4 1.7-1 1.1-1.1-3.6-1.2h-5.6l-4.5 9.5-4.5 9.6-4.1-9.3-4.1-9.3-6-.3c-3.4-.2-6.1 0-6.1.3zM484 480.7c-14.6 14-31.2 30.1-37 35.7-5.8 5.6-22.2 21.4-36.5 35.1-14.3 13.7-31.4 30.1-38 36.5-25.2 24.4-112.1 107.7-116.7 111.8-2.6 2.4-4.8 5-4.8 5.7 0 2.7 21.3 38 38.3 63.5 15.8 23.6 43.5 61.1 44.9 60.7.7-.2 2.9-2.3 61.3-59.1 77.7-75.6 108.3-105.3 112.3-109l4.2-4 10.2 10c5.7 5.5 45.6 44.2 88.7 86.2 43.2 41.9 78.8 76.2 79.2 76.2 1 0 21.7-27.4 34-45 15.9-22.6 42.6-64.9 47.6-75.5l1.8-3.8-6.1-5.6c-3.3-3.1-62-59.4-130.3-125.1-68.4-65.7-124.8-119.6-125.5-119.7-.6-.1-13 11.3-27.6 25.4z"/></svg>